<svg width="70" height="76" viewBox="0 0 70 76" fill="none" xmlns="http://www.w3.org/2000/svg">
<path d="M34.4342 5.29291L34.3634 5.31916V5.31541C25.4736 8.16916 17.0644 10.8542 0.30188 10.1942V12.7254C1.98223 12.7892 3.61414 12.8229 5.14919 12.8229C19.2552 12.8229 27.3514 10.2204 35.1831 7.70791C44.032 4.86541 52.3816 2.18416 68.9131 2.79541V0.260407C52.0053 -0.347093 43.067 2.52166 34.4342 5.29291Z" fill="#FDF9EE"/>
<path d="M68.913 72.6393H0.301819V75.1668H68.913V72.6393Z" fill="#FDF9EE"/>
<path d="M14.4637 34.2543V29.0268L10.1231 22.123H11.5538C12.5151 22.123 13.4167 22.5993 13.9607 23.398L15.9168 26.803L17.8244 23.413C18.3646 22.6068 19.2738 22.123 20.2425 22.123H21.3043L17.1836 29.0268V34.2543H14.4637Z" fill="#FDF9EE"/>
<path d="M22.8803 34.2543V22.123H26.4497C30.4661 22.123 32.7724 24.2868 32.7724 28.0593V28.1943C32.7724 32.0418 30.4624 34.2505 26.4348 34.2505H22.8803V34.2543ZM25.5815 32.1468H26.3491C28.741 32.1468 29.9519 30.8305 29.9519 28.2318V28.0968C29.9519 25.4605 28.7969 24.2343 26.3155 24.2343H25.5815V32.1468Z" fill="#FDF9EE"/>
<path d="M42.985 34.2543L37.1838 25.5505V34.2543H34.6503V22.123H37.9365L43.2979 30.1818V22.123H45.6974V34.2543H42.985Z" fill="#FDF9EE"/>
<path d="M48.3352 34.2543V22.123H56.5432V24.2305H51.0178V27.1105H55.5112V29.083H51.0178V32.1468H56.8152V34.2543H48.3352Z" fill="#FDF9EE"/>
<path d="M62.5307 34.2543V29.0268L58.1863 22.123H59.6171C60.5783 22.123 61.48 22.5993 62.0239 23.398L63.9837 26.803L65.8914 23.413C66.4353 22.6068 67.3407 22.123 68.3094 22.123H69.3713L65.2468 29.0268V34.2543H62.5307Z" fill="#FDF9EE"/>
<path d="M0.312988 48.8493V36.718H8.4055V38.8443H3.01422V42.0955H7.35481V44.1355H3.01422V48.8493H0.312988Z" fill="#FDF9EE"/>
<path d="M13.0516 36.718H10.3317V48.8493H13.0516V36.718Z" fill="#FDF9EE"/>
<path d="M20.1307 49.0368C16.1142 49.0368 15.1231 46.888 14.9965 45.073H17.6679C17.7759 46.003 18.156 47.0643 20.1269 47.0643C21.3714 47.0643 22.2059 46.408 22.2059 45.4293C22.2059 44.4618 21.6732 44.1018 19.8326 43.828C16.5613 43.408 15.343 42.4143 15.343 40.153C15.343 38.0305 17.2022 36.5455 19.8661 36.5455C22.6866 36.5455 24.2961 37.7905 24.5271 40.1493H21.96C21.7812 39.0468 21.1143 38.533 19.8661 38.533C18.6664 38.533 17.9809 39.043 17.9809 39.928C17.9809 40.873 18.5285 41.2405 20.3207 41.4955C24.1173 41.9643 24.8774 43.2505 24.8774 45.1705C24.8774 47.4468 22.925 49.0368 20.1307 49.0368Z" fill="#FDF9EE"/>
<path d="M34.6502 48.8493V43.828H29.3968V48.8493H26.8968V36.718H29.3968V41.6868H34.6502V36.718H37.1913V48.8493H34.6502Z" fill="#FDF9EE"/>
<path d="M10.3727 63.343V54.733L10.1566 55.2655L6.99341 63.343H6.12156L3.01422 55.4493V63.343H0.312988V51.2118H3.90097L6.73632 58.8168L9.53815 51.2118H13.0553V63.343H10.3727Z" fill="#FDF9EE"/>
<path d="M33.6666 63.3354L30.7754 58.6367H29.3968V63.3317H26.8782V51.2004H31.189C34.1883 51.2004 35.8388 52.5054 35.8388 54.8754V54.9429C35.8388 56.5217 35.0228 57.6204 33.4803 58.1229L33.3462 58.1679L36.5355 63.3317H33.6666V63.3354ZM29.3968 56.8029H31.1219C32.5005 56.8029 33.2009 56.2067 33.2009 55.0329V54.9654C33.2009 53.7992 32.5601 53.2779 31.1219 53.2779H29.3968V56.8029Z" fill="#FDF9EE"/>
<path d="M40.8426 51.2118H38.1414V63.343H40.8426V51.2118Z" fill="#FDF9EE"/>
<path d="M50.1497 63.343V51.2118H57.9926V53.3193H52.836V56.1993H56.9605V58.1718H52.836V61.2355H58.2646V63.343H50.1497Z" fill="#FDF9EE"/>
<path d="M62.9405 63.343V53.3193H59.6804V51.2118H68.9242V53.3193H65.6604V63.343H62.9405Z" fill="#FDF9EE"/>
<path d="M5.13047 34.4342C1.11775 34.4342 0.122952 32.2817 0 30.4705H2.67142C2.77947 31.4005 3.15951 32.4617 5.13047 32.4617C6.3749 32.4617 7.20949 31.8055 7.20949 30.8267C7.20949 29.8592 6.67669 29.4992 4.83613 29.2255C1.56485 28.8092 0.346502 27.8117 0.346502 25.5505C0.346502 23.428 2.20569 21.943 4.86594 21.943C7.68639 21.943 9.29595 23.188 9.52695 25.5467H6.95986C6.78101 24.4442 6.11409 23.9305 4.86594 23.9305C3.66622 23.9305 2.98067 24.4405 2.98067 25.3255C2.98067 26.2705 3.52836 26.638 5.31676 26.893C9.11339 27.3617 9.87718 28.648 9.87718 30.568C9.88091 32.8442 7.92857 34.4342 5.13047 34.4342Z" fill="#FDF9EE"/>
<path d="M22.6382 63.343L21.8111 60.6355H17.7983L17.0234 63.343H14.6798L18.238 51.2118H21.7403L25.25 63.343H22.6382ZM18.3833 58.723H21.2298L19.8289 53.7393L18.3833 58.723Z" fill="#FDF9EE"/>
<path d="M40.8426 56.9493L44.4976 52.5393C45.1944 51.6955 46.2301 51.2118 47.3181 51.2118H48.4917L43.7338 56.9568L48.7339 63.343H47.4038C46.2413 63.343 45.1459 62.788 44.4529 61.8468L40.8426 56.9493Z" fill="#FDF9EE"/>
</svg>
